<?xml version="1.0" encoding="UTF-8"?><svg xmlns="http://www.w3.org/2000/svg" xmlns:xlink="http://www.w3.org/1999/xlink" fill-opacity="1" color-rendering="auto" color-interpolation="auto" text-rendering="auto" stroke="black" stroke-linecap="square" width="296" stroke-miterlimit="10" shape-rendering="auto" stroke-opacity="1" fill="black" stroke-dasharray="none" font-weight="normal" stroke-width="1" height="247" font-family="'Dialog'" font-style="normal" stroke-linejoin="miter" font-size="12px" stroke-dashoffset="0" image-rendering="auto">
  <!--Generated by ySVG 2.5-->
  <defs id="genericDefs"/>
  <g>
    <defs id="defs1">
      <linearGradient x1="86" gradientUnits="userSpaceOnUse" x2="220" y1="171" y2="217" id="linearGradient1" spreadMethod="reflect">
        <stop stop-opacity="1" stop-color="rgb(232,238,247)" offset="0%"/>
        <stop stop-opacity="1" stop-color="rgb(183,201,227)" offset="100%"/>
      </linearGradient>
      <linearGradient x1="20" gradientUnits="userSpaceOnUse" x2="138" y1="0" y2="46" id="linearGradient2" spreadMethod="reflect">
        <stop stop-opacity="1" stop-color="rgb(232,238,247)" offset="0%"/>
        <stop stop-opacity="1" stop-color="rgb(183,201,227)" offset="100%"/>
      </linearGradient>
      <linearGradient x1="168" gradientUnits="userSpaceOnUse" x2="286" y1="0" y2="46" id="linearGradient3" spreadMethod="reflect">
        <stop stop-opacity="1" stop-color="rgb(232,238,247)" offset="0%"/>
        <stop stop-opacity="1" stop-color="rgb(183,201,227)" offset="100%"/>
      </linearGradient>
      <linearGradient x1="78" gradientUnits="userSpaceOnUse" x2="228" y1="93" y2="151" id="linearGradient4" spreadMethod="reflect">
        <stop stop-opacity="1" stop-color="rgb(232,238,247)" offset="0%"/>
        <stop stop-opacity="1" stop-color="rgb(153,204,0)" offset="100%"/>
      </linearGradient>
      <clipPath clipPathUnits="userSpaceOnUse" id="clipPath1">
        <path d="M0 0 L296 0 L296 247 L0 247 L0 0 Z"/>
      </clipPath>
      <clipPath clipPathUnits="userSpaceOnUse" id="clipPath2">
        <path d="M5 -15 L301 -15 L301 232 L5 232 L5 -15 Z"/>
      </clipPath>
      <clipPath clipPathUnits="userSpaceOnUse" id="clipPath3">
        <path d="M92 177 L222 177 L222 209.1875 L92 209.1875 L92 177 Z"/>
      </clipPath>
      <clipPath clipPathUnits="userSpaceOnUse" id="clipPath4">
        <path d="M22 6.9062 L136 6.9062 L136 39.0938 L22 39.0938 L22 6.9062 Z"/>
      </clipPath>
      <clipPath clipPathUnits="userSpaceOnUse" id="clipPath5">
        <path d="M170 6.9062 L284 6.9062 L284 39.0938 L170 39.0938 L170 6.9062 Z"/>
      </clipPath>
      <clipPath clipPathUnits="userSpaceOnUse" id="clipPath6">
        <path d="M0 0 L0 18 L296 18 L296 0 Z"/>
      </clipPath>
      <script type="text/ecmascript">
        <![CDATA[      var SVGDocument = null;
      var SVGRoot = null;
      var TrueCoords = null;
      var lastElement = null;
      var initialized = null;
      var tipGroup;
      function Init(evt)
      {
         SVGDocument = evt.target.ownerDocument;
         SVGRoot = SVGDocument.documentElement;
         TrueCoords = SVGRoot.createSVGPoint();
         initialized = evt;
      };
      function GetTrueCoords(evt)
      {
         var newScale = SVGRoot.currentScale;
         var translation = SVGRoot.currentTranslate;
         TrueCoords.x = (evt.clientX - translation.x)/newScale;
         TrueCoords.y = (evt.clientY - translation.y)/newScale;
      };
      function HideTooltip( evt )
      {
         if(initialized == null) {
           Init(evt);
         }
         if(tipGroup != null) {
           tipGroup.setAttributeNS(null, 'visibility', 'hidden');
         }
      };
      function ShowTooltip( evt )
      {
         if(initialized == null) {
           Init(evt);
         }
         GetTrueCoords( evt );
         var tipScale = 1/SVGRoot.currentScale;
         var targetElement = evt.currentTarget;
         if ( lastElement != targetElement )
         {
            var targetId = targetElement.getAttributeNS(null, 'id');
            var tipId = 'tooltip.' + targetId;
            tipGroup = SVGDocument.getElementById(tipId);
            var xPos = TrueCoords.x + (10 * tipScale);
            var yPos = TrueCoords.y + (10 * tipScale);
            tipGroup.setAttributeNS(null, 'transform', 'translate(' + xPos + ',' + yPos + ') scale(' + tipScale + ')');
            tipGroup.setAttributeNS(null, 'visibility', 'visible');
         }
      };
]]>
      </script>
    </defs>
    <g fill="white" text-rendering="geometricPrecision" shape-rendering="geometricPrecision" transform="translate(-5,15)" stroke="white">
      <rect x="5" width="296" height="247" y="-15" clip-path="url(#clipPath2)" stroke="none"/>
    </g>
    <g onmouseout="HideTooltip(evt)" id="y.node.0" onmousemove="ShowTooltip(evt)">
      <a target="_blank" xlink:type="simple" xlink:href="https://dstl.github.io/eleatics/argumentation/coronavirus/information.xhtml#lab" xlink:show="new">
        <g fill="url(#linearGradient1)" text-rendering="geometricPrecision" shape-rendering="geometricPrecision" transform="matrix(1,0,0,1,-5,15)" stroke="url(#linearGradient1)">
          <path d="M86 171 L220 171 L220 217 L86 217 Z" stroke="none"/>
        </g>
        <g text-rendering="geometricPrecision" stroke-miterlimit="1.45" shape-rendering="geometricPrecision" transform="matrix(1,0,0,1,-5,15)" stroke-linecap="butt">
          <path fill="none" d="M86 171 L220 171 L220 217 L86 217 Z"/>
        </g>
        <g>
          <g text-rendering="geometricPrecision" shape-rendering="geometricPrecision" transform="matrix(1,0,0,1,-5,15)">
            <path d="M98.0898 181.6895 L98.0898 180.4707 L99.1523 180.4707 L99.1523 181.6895 L98.0898 181.6895 ZM98.0898 189.0645 L98.0898 182.8457 L99.1523 182.8457 L99.1523 189.0645 L98.0898 189.0645 ZM100.7559 189.0645 L100.7559 182.8457 L101.6934 182.8457 L101.6934 183.7207 Q102.3809 182.7051 103.6777 182.7051 Q104.2402 182.7051 104.709 182.9082 Q105.1934 183.1113 105.4277 183.4395 Q105.6621 183.7676 105.7559 184.2051 Q105.8027 184.502 105.8027 185.2363 L105.8027 189.0645 L104.7559 189.0645 L104.7559 185.2832 Q104.7559 184.627 104.6309 184.3145 Q104.5059 184.002 104.1934 183.8145 Q103.8809 183.6113 103.459 183.6113 Q102.7871 183.6113 102.2871 184.0488 Q101.8027 184.4707 101.8027 185.6582 L101.8027 189.0645 L100.7559 189.0645 ZM109.7266 188.127 L109.8828 189.0488 Q109.4297 189.1426 109.0859 189.1426 Q108.5078 189.1426 108.1953 188.9707 Q107.8828 188.7832 107.7422 188.4863 Q107.6172 188.1895 107.6172 187.2363 L107.6172 183.6582 L106.8516 183.6582 L106.8516 182.8457 L107.6172 182.8457 L107.6172 181.2988 L108.6641 180.6738 L108.6641 182.8457 L109.7266 182.8457 L109.7266 183.6582 L108.6641 183.6582 L108.6641 187.2988 Q108.6641 187.752 108.7109 187.877 Q108.7734 188.002 108.8984 188.0801 Q109.0234 188.1582 109.2578 188.1582 Q109.4453 188.1582 109.7266 188.127 ZM110.748 189.0645 L110.748 182.8457 L111.7012 182.8457 L111.7012 183.7832 Q112.0605 183.127 112.3574 182.9238 Q112.6699 182.7051 113.0449 182.7051 Q113.5762 182.7051 114.123 183.0332 L113.7637 184.0176 Q113.373 183.7832 112.998 183.7832 Q112.6387 183.7832 112.3574 184.002 Q112.0918 184.2051 111.9824 184.5801 Q111.7949 185.1426 111.7949 185.7988 L111.7949 189.0645 L110.748 189.0645 ZM114.3691 185.9551 Q114.3691 184.2207 115.3223 183.3926 Q116.1191 182.7051 117.2754 182.7051 Q118.5566 182.7051 119.3691 183.5488 Q120.1973 184.377 120.1973 185.8613 Q120.1973 187.0645 119.8379 187.752 Q119.4785 188.4395 118.7754 188.8301 Q118.0879 189.2051 117.2754 189.2051 Q115.9785 189.2051 115.166 188.377 Q114.3691 187.5332 114.3691 185.9551 ZM115.4473 185.9551 Q115.4473 187.1426 115.9629 187.7363 Q116.4941 188.3301 117.2754 188.3301 Q118.0723 188.3301 118.5879 187.7363 Q119.1035 187.1426 119.1035 185.9238 Q119.1035 184.7676 118.5723 184.1738 Q118.0566 183.5801 117.2754 183.5801 Q116.4941 183.5801 115.9629 184.1738 Q115.4473 184.752 115.4473 185.9551 ZM125.4648 189.0645 L125.4648 188.2832 Q124.8711 189.2051 123.7305 189.2051 Q122.9805 189.2051 122.3555 188.7988 Q121.7305 188.377 121.3867 187.6426 Q121.043 186.9082 121.043 185.9551 Q121.043 185.0332 121.3555 184.2676 Q121.668 183.502 122.293 183.1113 Q122.918 182.7051 123.6836 182.7051 Q124.2461 182.7051 124.6836 182.9395 Q125.1211 183.1738 125.4023 183.5488 L125.4023 180.4707 L126.4492 180.4707 L126.4492 189.0645 L125.4648 189.0645 ZM122.1367 185.9551 Q122.1367 187.1582 122.6367 187.752 Q123.1367 188.3301 123.8242 188.3301 Q124.5117 188.3301 124.9961 187.7676 Q125.4805 187.2051 125.4805 186.0488 Q125.4805 184.7676 124.9805 184.1738 Q124.4961 183.5801 123.7773 183.5801 Q123.0742 183.5801 122.6055 184.1582 Q122.1367 184.7207 122.1367 185.9551 ZM132.1855 189.0645 L132.1855 188.1426 Q131.4512 189.2051 130.2012 189.2051 Q129.6543 189.2051 129.1699 189.002 Q128.7012 188.7832 128.4668 188.4707 Q128.2324 188.1426 128.1387 187.6738 Q128.0762 187.377 128.0762 186.6895 L128.0762 182.8457 L129.1387 182.8457 L129.1387 186.2988 Q129.1387 187.1113 129.2012 187.4082 Q129.2949 187.8145 129.6074 188.0645 Q129.9355 188.2988 130.4199 188.2988 Q130.8887 188.2988 131.2949 188.0645 Q131.7168 187.8145 131.8887 187.3926 Q132.0762 186.9707 132.0762 186.1738 L132.0762 182.8457 L133.123 182.8457 L133.123 189.0645 L132.1855 189.0645 ZM138.8438 186.7832 L139.875 186.9238 Q139.7031 187.9863 139 188.5957 Q138.2969 189.2051 137.2812 189.2051 Q136 189.2051 135.2188 188.377 Q134.4531 187.5332 134.4531 185.9707 Q134.4531 184.9707 134.7812 184.2207 Q135.125 183.4551 135.7969 183.0801 Q136.4844 182.7051 137.2969 182.7051 Q138.2969 182.7051 138.9375 183.2207 Q139.5938 183.7207 139.7812 184.6738 L138.75 184.8301 Q138.6094 184.2051 138.2344 183.8926 Q137.8594 183.5645 137.3281 183.5645 Q136.5312 183.5645 136.0312 184.1426 Q135.5312 184.7051 135.5312 185.9395 Q135.5312 187.2051 136.0156 187.7676 Q136.5 188.3301 137.2656 188.3301 Q137.8906 188.3301 138.2969 187.9551 Q138.7188 187.5801 138.8438 186.7832 ZM143.0781 188.127 L143.2344 189.0488 Q142.7812 189.1426 142.4375 189.1426 Q141.8594 189.1426 141.5469 188.9707 Q141.2344 188.7832 141.0938 188.4863 Q140.9688 188.1895 140.9688 187.2363 L140.9688 183.6582 L140.2031 183.6582 L140.2031 182.8457 L140.9688 182.8457 L140.9688 181.2988 L142.0156 180.6738 L142.0156 182.8457 L143.0781 182.8457 L143.0781 183.6582 L142.0156 183.6582 L142.0156 187.2988 Q142.0156 187.752 142.0625 187.877 Q142.125 188.002 142.25 188.0801 Q142.375 188.1582 142.6094 188.1582 Q142.7969 188.1582 143.0781 188.127 ZM144.1152 181.6895 L144.1152 180.4707 L145.1777 180.4707 L145.1777 181.6895 L144.1152 181.6895 ZM144.1152 189.0645 L144.1152 182.8457 L145.1777 182.8457 L145.1777 189.0645 L144.1152 189.0645 ZM146.3906 185.9551 Q146.3906 184.2207 147.3438 183.3926 Q148.1406 182.7051 149.2969 182.7051 Q150.5781 182.7051 151.3906 183.5488 Q152.2188 184.377 152.2188 185.8613 Q152.2188 187.0645 151.8594 187.752 Q151.5 188.4395 150.7969 188.8301 Q150.1094 189.2051 149.2969 189.2051 Q148 189.2051 147.1875 188.377 Q146.3906 187.5332 146.3906 185.9551 ZM147.4688 185.9551 Q147.4688 187.1426 147.9844 187.7363 Q148.5156 188.3301 149.2969 188.3301 Q150.0938 188.3301 150.6094 187.7363 Q151.125 187.1426 151.125 185.9238 Q151.125 184.7676 150.5938 184.1738 Q150.0781 183.5801 149.2969 183.5801 Q148.5156 183.5801 147.9844 184.1738 Q147.4688 184.752 147.4688 185.9551 ZM153.4551 189.0645 L153.4551 182.8457 L154.3926 182.8457 L154.3926 183.7207 Q155.0801 182.7051 156.377 182.7051 Q156.9395 182.7051 157.4082 182.9082 Q157.8926 183.1113 158.127 183.4395 Q158.3613 183.7676 158.4551 184.2051 Q158.502 184.502 158.502 185.2363 L158.502 189.0645 L157.4551 189.0645 L157.4551 185.2832 Q157.4551 184.627 157.3301 184.3145 Q157.2051 184.002 156.8926 183.8145 Q156.5801 183.6113 156.1582 183.6113 Q155.4863 183.6113 154.9863 184.0488 Q154.502 184.4707 154.502 185.6582 L154.502 189.0645 L153.4551 189.0645 ZM165.7598 188.127 L165.916 189.0488 Q165.4629 189.1426 165.1191 189.1426 Q164.541 189.1426 164.2285 188.9707 Q163.916 188.7832 163.7754 188.4863 Q163.6504 188.1895 163.6504 187.2363 L163.6504 183.6582 L162.8848 183.6582 L162.8848 182.8457 L163.6504 182.8457 L163.6504 181.2988 L164.6973 180.6738 L164.6973 182.8457 L165.7598 182.8457 L165.7598 183.6582 L164.6973 183.6582 L164.6973 187.2988 Q164.6973 187.752 164.7441 187.877 Q164.8066 188.002 164.9316 188.0801 Q165.0566 188.1582 165.291 188.1582 Q165.4785 188.1582 165.7598 188.127 ZM166.7969 189.0645 L166.7969 180.4707 L167.8438 180.4707 L167.8438 183.5488 Q168.5781 182.7051 169.7031 182.7051 Q170.4062 182.7051 170.9062 182.9863 Q171.4219 183.252 171.6406 183.7363 Q171.8594 184.2051 171.8594 185.127 L171.8594 189.0645 L170.8125 189.0645 L170.8125 185.127 Q170.8125 184.3301 170.4688 183.9707 Q170.125 183.6113 169.5 183.6113 Q169.0312 183.6113 168.6094 183.8613 Q168.2031 184.0957 168.0156 184.5176 Q167.8438 184.9238 167.8438 185.6582 L167.8438 189.0645 L166.7969 189.0645 ZM173.4551 189.0645 L173.4551 182.8457 L174.4082 182.8457 L174.4082 183.7832 Q174.7676 183.127 175.0645 182.9238 Q175.377 182.7051 175.752 182.7051 Q176.2832 182.7051 176.8301 183.0332 L176.4707 184.0176 Q176.0801 183.7832 175.7051 183.7832 Q175.3457 183.7832 175.0645 184.002 Q174.7988 184.2051 174.6895 184.5801 Q174.502 185.1426 174.502 185.7988 L174.502 189.0645 L173.4551 189.0645 ZM177.0762 185.9551 Q177.0762 184.2207 178.0293 183.3926 Q178.8262 182.7051 179.9824 182.7051 Q181.2637 182.7051 182.0762 183.5488 Q182.9043 184.377 182.9043 185.8613 Q182.9043 187.0645 182.5449 187.752 Q182.1855 188.4395 181.4824 188.8301 Q180.7949 189.2051 179.9824 189.2051 Q178.6855 189.2051 177.873 188.377 Q177.0762 187.5332 177.0762 185.9551 ZM178.1543 185.9551 Q178.1543 187.1426 178.6699 187.7363 Q179.2012 188.3301 179.9824 188.3301 Q180.7793 188.3301 181.2949 187.7363 Q181.8105 187.1426 181.8105 185.9238 Q181.8105 184.7676 181.2793 184.1738 Q180.7637 183.5801 179.9824 183.5801 Q179.2012 183.5801 178.6699 184.1738 Q178.1543 184.752 178.1543 185.9551 ZM188.2188 189.0645 L188.2188 188.1426 Q187.4844 189.2051 186.2344 189.2051 Q185.6875 189.2051 185.2031 189.002 Q184.7344 188.7832 184.5 188.4707 Q184.2656 188.1426 184.1719 187.6738 Q184.1094 187.377 184.1094 186.6895 L184.1094 182.8457 L185.1719 182.8457 L185.1719 186.2988 Q185.1719 187.1113 185.2344 187.4082 Q185.3281 187.8145 185.6406 188.0645 Q185.9688 188.2988 186.4531 188.2988 Q186.9219 188.2988 187.3281 188.0645 Q187.75 187.8145 187.9219 187.3926 Q188.1094 186.9707 188.1094 186.1738 L188.1094 182.8457 L189.1562 182.8457 L189.1562 189.0645 L188.2188 189.0645 ZM190.6113 189.5801 L191.6426 189.7363 Q191.7051 190.2051 192.002 190.4238 Q192.3926 190.7207 193.0645 190.7207 Q193.7988 190.7207 194.1895 190.4238 Q194.5957 190.127 194.7363 189.6113 Q194.8301 189.2832 194.8145 188.252 Q194.127 189.0645 193.0957 189.0645 Q191.8145 189.0645 191.1113 188.1426 Q190.4082 187.2051 190.4082 185.9238 Q190.4082 185.0332 190.7207 184.2832 Q191.0488 183.5176 191.6582 183.1113 Q192.2676 182.7051 193.0957 182.7051 Q194.2051 182.7051 194.9238 183.5957 L194.9238 182.8457 L195.8926 182.8457 L195.8926 188.2207 Q195.8926 189.6738 195.5957 190.2832 Q195.2988 190.8926 194.6582 191.2363 Q194.0176 191.5957 193.0801 191.5957 Q191.9707 191.5957 191.2832 191.0957 Q190.5957 190.5957 190.6113 189.5801 ZM191.4863 185.8457 Q191.4863 187.0645 191.9707 187.627 Q192.4551 188.1895 193.1895 188.1895 Q193.9238 188.1895 194.4082 187.627 Q194.9082 187.0645 194.9082 185.877 Q194.9082 184.7363 194.3926 184.1582 Q193.8926 183.5801 193.1738 183.5801 Q192.4707 183.5801 191.9707 184.1582 Q191.4863 184.7207 191.4863 185.8457 ZM197.4883 189.0645 L197.4883 180.4707 L198.5352 180.4707 L198.5352 183.5488 Q199.2695 182.7051 200.3945 182.7051 Q201.0977 182.7051 201.5977 182.9863 Q202.1133 183.252 202.332 183.7363 Q202.5508 184.2051 202.5508 185.127 L202.5508 189.0645 L201.5039 189.0645 L201.5039 185.127 Q201.5039 184.3301 201.1602 183.9707 Q200.8164 183.6113 200.1914 183.6113 Q199.7227 183.6113 199.3008 183.8613 Q198.8945 184.0957 198.707 184.5176 Q198.5352 184.9238 198.5352 185.6582 L198.5352 189.0645 L197.4883 189.0645 ZM211.5586 188.2988 Q210.9648 188.7988 210.418 189.002 Q209.8867 189.2051 209.2617 189.2051 Q208.2305 189.2051 207.6836 188.7051 Q207.1367 188.2051 207.1367 187.4238 Q207.1367 186.9707 207.3398 186.5957 Q207.543 186.2051 207.8867 185.9863 Q208.2305 185.752 208.6523 185.6426 Q208.9492 185.5488 209.5898 185.4707 Q210.8555 185.3301 211.4648 185.1113 Q211.4648 184.8926 211.4648 184.8457 Q211.4648 184.1895 211.168 183.9238 Q210.7617 183.5801 209.9648 183.5801 Q209.2305 183.5801 208.8711 183.8457 Q208.5117 184.0957 208.3398 184.752 L207.3086 184.6113 Q207.4492 183.9551 207.7773 183.5488 Q208.1055 183.1426 208.7148 182.9238 Q209.3242 182.7051 210.1211 182.7051 Q210.918 182.7051 211.418 182.8926 Q211.918 183.0801 212.1523 183.3613 Q212.3867 183.6426 212.4805 184.0801 Q212.5273 184.3457 212.5273 185.0488 L212.5273 186.4551 Q212.5273 187.9238 212.5898 188.3145 Q212.668 188.7051 212.8711 189.0645 L211.7617 189.0645 Q211.6055 188.7363 211.5586 188.2988 ZM211.4648 185.9395 Q210.8867 186.1738 209.7461 186.3457 Q209.0898 186.4395 208.8242 186.5645 Q208.5586 186.6738 208.4023 186.8926 Q208.2617 187.1113 208.2617 187.3926 Q208.2617 187.8145 208.5742 188.0957 Q208.9023 188.377 209.5117 188.377 Q210.1211 188.377 210.5898 188.1113 Q211.0742 187.8457 211.293 187.377 Q211.4648 187.0176 211.4648 186.3301 L211.4648 185.9395 Z" stroke="none" clip-path="url(#clipPath3)"/>
            <path d="M108.7373 204.1582 L108.7373 195.5645 L109.7998 195.5645 L109.7998 204.1582 L108.7373 204.1582 ZM115.4971 203.3926 Q114.9033 203.8926 114.3564 204.0957 Q113.8252 204.2988 113.2002 204.2988 Q112.1689 204.2988 111.6221 203.7988 Q111.0752 203.2988 111.0752 202.5176 Q111.0752 202.0645 111.2783 201.6895 Q111.4814 201.2988 111.8252 201.0801 Q112.1689 200.8457 112.5908 200.7363 Q112.8877 200.6426 113.5283 200.5645 Q114.7939 200.4238 115.4033 200.2051 Q115.4033 199.9863 115.4033 199.9395 Q115.4033 199.2832 115.1064 199.0176 Q114.7002 198.6738 113.9033 198.6738 Q113.1689 198.6738 112.8096 198.9395 Q112.4502 199.1895 112.2783 199.8457 L111.2471 199.7051 Q111.3877 199.0488 111.7158 198.6426 Q112.0439 198.2363 112.6533 198.0176 Q113.2627 197.7988 114.0596 197.7988 Q114.8564 197.7988 115.3564 197.9863 Q115.8564 198.1738 116.0908 198.4551 Q116.3252 198.7363 116.4189 199.1738 Q116.4658 199.4395 116.4658 200.1426 L116.4658 201.5488 Q116.4658 203.0176 116.5283 203.4082 Q116.6064 203.7988 116.8096 204.1582 L115.7002 204.1582 Q115.5439 203.8301 115.4971 203.3926 ZM115.4033 201.0332 Q114.8252 201.2676 113.6846 201.4395 Q113.0283 201.5332 112.7627 201.6582 Q112.4971 201.7676 112.3408 201.9863 Q112.2002 202.2051 112.2002 202.4863 Q112.2002 202.9082 112.5127 203.1895 Q112.8408 203.4707 113.4502 203.4707 Q114.0596 203.4707 114.5283 203.2051 Q115.0127 202.9395 115.2314 202.4707 Q115.4033 202.1113 115.4033 201.4238 L115.4033 201.0332 ZM119.0771 204.1582 L118.0928 204.1582 L118.0928 195.5645 L119.1553 195.5645 L119.1553 198.627 Q119.8271 197.7988 120.8584 197.7988 Q121.4365 197.7988 121.9365 198.0332 Q122.4521 198.252 122.7803 198.6738 Q123.124 199.0957 123.3115 199.6895 Q123.499 200.2832 123.499 200.9551 Q123.499 202.5488 122.7021 203.4238 Q121.9053 204.2988 120.8115 204.2988 Q119.7021 204.2988 119.0771 203.377 L119.0771 204.1582 ZM119.0615 201.002 Q119.0615 202.1113 119.374 202.6113 Q119.874 203.4238 120.7178 203.4238 Q121.4053 203.4238 121.9053 202.8301 Q122.4209 202.2363 122.4209 201.0332 Q122.4209 199.8145 121.9365 199.2363 Q121.4521 198.6582 120.7646 198.6582 Q120.0771 198.6582 119.5615 199.2676 Q119.0615 199.8613 119.0615 201.002 ZM124.3916 201.0488 Q124.3916 199.3145 125.3447 198.4863 Q126.1416 197.7988 127.2979 197.7988 Q128.5791 197.7988 129.3916 198.6426 Q130.2197 199.4707 130.2197 200.9551 Q130.2197 202.1582 129.8604 202.8457 Q129.501 203.5332 128.7979 203.9238 Q128.1104 204.2988 127.2979 204.2988 Q126.001 204.2988 125.1885 203.4707 Q124.3916 202.627 124.3916 201.0488 ZM125.4697 201.0488 Q125.4697 202.2363 125.9854 202.8301 Q126.5166 203.4238 127.2979 203.4238 Q128.0947 203.4238 128.6104 202.8301 Q129.126 202.2363 129.126 201.0176 Q129.126 199.8613 128.5947 199.2676 Q128.0791 198.6738 127.2979 198.6738 Q126.5166 198.6738 125.9854 199.2676 Q125.4697 199.8457 125.4697 201.0488 ZM131.4404 204.1582 L131.4404 197.9395 L132.3936 197.9395 L132.3936 198.877 Q132.7529 198.2207 133.0498 198.0176 Q133.3623 197.7988 133.7373 197.7988 Q134.2686 197.7988 134.8154 198.127 L134.4561 199.1113 Q134.0654 198.877 133.6904 198.877 Q133.3311 198.877 133.0498 199.0957 Q132.7842 199.2988 132.6748 199.6738 Q132.4873 200.2363 132.4873 200.8926 L132.4873 204.1582 L131.4404 204.1582 ZM139.5146 203.3926 Q138.9209 203.8926 138.374 204.0957 Q137.8428 204.2988 137.2178 204.2988 Q136.1865 204.2988 135.6396 203.7988 Q135.0928 203.2988 135.0928 202.5176 Q135.0928 202.0645 135.2959 201.6895 Q135.499 201.2988 135.8428 201.0801 Q136.1865 200.8457 136.6084 200.7363 Q136.9053 200.6426 137.5459 200.5645 Q138.8115 200.4238 139.4209 200.2051 Q139.4209 199.9863 139.4209 199.9395 Q139.4209 199.2832 139.124 199.0176 Q138.7178 198.6738 137.9209 198.6738 Q137.1865 198.6738 136.8271 198.9395 Q136.4678 199.1895 136.2959 199.8457 L135.2646 199.7051 Q135.4053 199.0488 135.7334 198.6426 Q136.0615 198.2363 136.6709 198.0176 Q137.2803 197.7988 138.0771 197.7988 Q138.874 197.7988 139.374 197.9863 Q139.874 198.1738 140.1084 198.4551 Q140.3428 198.7363 140.4365 199.1738 Q140.4834 199.4395 140.4834 200.1426 L140.4834 201.5488 Q140.4834 203.0176 140.5459 203.4082 Q140.624 203.7988 140.8271 204.1582 L139.7178 204.1582 Q139.5615 203.8301 139.5146 203.3926 ZM139.4209 201.0332 Q138.8428 201.2676 137.7021 201.4395 Q137.0459 201.5332 136.7803 201.6582 Q136.5146 201.7676 136.3584 201.9863 Q136.2178 202.2051 136.2178 202.4863 Q136.2178 202.9082 136.5303 203.1895 Q136.8584 203.4707 137.4678 203.4707 Q138.0771 203.4707 138.5459 203.2051 Q139.0303 202.9395 139.249 202.4707 Q139.4209 202.1113 139.4209 201.4238 L139.4209 201.0332 ZM144.4229 203.2207 L144.5791 204.1426 Q144.126 204.2363 143.7822 204.2363 Q143.2041 204.2363 142.8916 204.0645 Q142.5791 203.877 142.4385 203.5801 Q142.3135 203.2832 142.3135 202.3301 L142.3135 198.752 L141.5479 198.752 L141.5479 197.9395 L142.3135 197.9395 L142.3135 196.3926 L143.3604 195.7676 L143.3604 197.9395 L144.4229 197.9395 L144.4229 198.752 L143.3604 198.752 L143.3604 202.3926 Q143.3604 202.8457 143.4072 202.9707 Q143.4697 203.0957 143.5947 203.1738 Q143.7197 203.252 143.9541 203.252 Q144.1416 203.252 144.4229 203.2207 ZM145.0693 201.0488 Q145.0693 199.3145 146.0225 198.4863 Q146.8193 197.7988 147.9756 197.7988 Q149.2568 197.7988 150.0693 198.6426 Q150.8975 199.4707 150.8975 200.9551 Q150.8975 202.1582 150.5381 202.8457 Q150.1787 203.5332 149.4756 203.9238 Q148.7881 204.2988 147.9756 204.2988 Q146.6787 204.2988 145.8662 203.4707 Q145.0693 202.627 145.0693 201.0488 ZM146.1475 201.0488 Q146.1475 202.2363 146.6631 202.8301 Q147.1943 203.4238 147.9756 203.4238 Q148.7725 203.4238 149.2881 202.8301 Q149.8037 202.2363 149.8037 201.0176 Q149.8037 199.8613 149.2725 199.2676 Q148.7568 198.6738 147.9756 198.6738 Q147.1943 198.6738 146.6631 199.2676 Q146.1475 199.8457 146.1475 201.0488 ZM152.1182 204.1582 L152.1182 197.9395 L153.0713 197.9395 L153.0713 198.877 Q153.4307 198.2207 153.7275 198.0176 Q154.04 197.7988 154.415 197.7988 Q154.9463 197.7988 155.4932 198.127 L155.1338 199.1113 Q154.7432 198.877 154.3682 198.877 Q154.0088 198.877 153.7275 199.0957 Q153.4619 199.2988 153.3525 199.6738 Q153.165 200.2363 153.165 200.8926 L153.165 204.1582 L152.1182 204.1582 ZM156.083 206.5488 L155.958 205.5645 Q156.3018 205.6582 156.5674 205.6582 Q156.9111 205.6582 157.1143 205.5332 Q157.333 205.4238 157.4736 205.2207 Q157.5674 205.0488 157.8018 204.4238 Q157.8174 204.3457 157.8955 204.1738 L155.5205 197.9395 L156.6611 197.9395 L157.958 201.5332 Q158.208 202.2207 158.4111 202.9863 Q158.5986 202.252 158.8486 201.5645 L160.1768 197.9395 L161.2236 197.9395 L158.8643 204.2676 Q158.4736 205.2832 158.2705 205.6738 Q157.9893 206.2051 157.6143 206.4395 Q157.2549 206.6895 156.7549 206.6895 Q156.458 206.6895 156.083 206.5488 ZM165.4639 196.7832 L165.4639 195.5645 L166.5264 195.5645 L166.5264 196.7832 L165.4639 196.7832 ZM165.4639 204.1582 L165.4639 197.9395 L166.5264 197.9395 L166.5264 204.1582 L165.4639 204.1582 ZM168.1299 204.1582 L168.1299 197.9395 L169.0674 197.9395 L169.0674 198.8145 Q169.7549 197.7988 171.0518 197.7988 Q171.6143 197.7988 172.083 198.002 Q172.5674 198.2051 172.8018 198.5332 Q173.0361 198.8613 173.1299 199.2988 Q173.1768 199.5957 173.1768 200.3301 L173.1768 204.1582 L172.1299 204.1582 L172.1299 200.377 Q172.1299 199.7207 172.0049 199.4082 Q171.8799 199.0957 171.5674 198.9082 Q171.2549 198.7051 170.833 198.7051 Q170.1611 198.7051 169.6611 199.1426 Q169.1768 199.5645 169.1768 200.752 L169.1768 204.1582 L168.1299 204.1582 ZM178.8662 201.877 L179.8975 202.0176 Q179.7256 203.0801 179.0225 203.6895 Q178.3193 204.2988 177.3037 204.2988 Q176.0225 204.2988 175.2412 203.4707 Q174.4756 202.627 174.4756 201.0645 Q174.4756 200.0645 174.8037 199.3145 Q175.1475 198.5488 175.8193 198.1738 Q176.5068 197.7988 177.3193 197.7988 Q178.3193 197.7988 178.96 198.3145 Q179.6162 198.8145 179.8037 199.7676 L178.7725 199.9238 Q178.6318 199.2988 178.2568 198.9863 Q177.8818 198.6582 177.3506 198.6582 Q176.5537 198.6582 176.0537 199.2363 Q175.5537 199.7988 175.5537 201.0332 Q175.5537 202.2988 176.0381 202.8613 Q176.5225 203.4238 177.2881 203.4238 Q177.9131 203.4238 178.3193 203.0488 Q178.7412 202.6738 178.8662 201.877 ZM180.8037 196.7832 L180.8037 195.5645 L181.8662 195.5645 L181.8662 196.7832 L180.8037 196.7832 ZM180.8037 204.1582 L180.8037 197.9395 L181.8662 197.9395 L181.8662 204.1582 L180.8037 204.1582 ZM187.501 204.1582 L187.501 203.377 Q186.9072 204.2988 185.7666 204.2988 Q185.0166 204.2988 184.3916 203.8926 Q183.7666 203.4707 183.4229 202.7363 Q183.0791 202.002 183.0791 201.0488 Q183.0791 200.127 183.3916 199.3613 Q183.7041 198.5957 184.3291 198.2051 Q184.9541 197.7988 185.7197 197.7988 Q186.2822 197.7988 186.7197 198.0332 Q187.1572 198.2676 187.4385 198.6426 L187.4385 195.5645 L188.4854 195.5645 L188.4854 204.1582 L187.501 204.1582 ZM184.1729 201.0488 Q184.1729 202.252 184.6729 202.8457 Q185.1729 203.4238 185.8604 203.4238 Q186.5479 203.4238 187.0322 202.8613 Q187.5166 202.2988 187.5166 201.1426 Q187.5166 199.8613 187.0166 199.2676 Q186.5322 198.6738 185.8135 198.6738 Q185.1104 198.6738 184.6416 199.252 Q184.1729 199.8145 184.1729 201.0488 ZM194.3936 202.1582 L195.4873 202.2832 Q195.2373 203.2363 194.5342 203.7676 Q193.8311 204.2988 192.7529 204.2988 Q191.3936 204.2988 190.5811 203.4551 Q189.7842 202.6113 189.7842 201.0957 Q189.7842 199.5332 190.5967 198.6738 Q191.4092 197.7988 192.6904 197.7988 Q193.9404 197.7988 194.7217 198.6426 Q195.5186 199.4863 195.5186 201.0332 Q195.5186 201.127 195.5186 201.3145 L190.8779 201.3145 Q190.9404 202.3457 191.4561 202.8926 Q191.9717 203.4238 192.7529 203.4238 Q193.3311 203.4238 193.7373 203.127 Q194.1592 202.8145 194.3936 202.1582 ZM190.9404 200.4551 L194.4092 200.4551 Q194.3467 199.6582 194.0186 199.2676 Q193.5029 198.6582 192.7061 198.6582 Q191.9717 198.6582 191.4717 199.1426 Q190.9873 199.627 190.9404 200.4551 ZM196.8174 204.1582 L196.8174 197.9395 L197.7549 197.9395 L197.7549 198.8145 Q198.4424 197.7988 199.7393 197.7988 Q200.3018 197.7988 200.7705 198.002 Q201.2549 198.2051 201.4893 198.5332 Q201.7236 198.8613 201.8174 199.2988 Q201.8643 199.5957 201.8643 200.3301 L201.8643 204.1582 L200.8174 204.1582 L200.8174 200.377 Q200.8174 199.7207 200.6924 199.4082 Q200.5674 199.0957 200.2549 198.9082 Q199.9424 198.7051 199.5205 198.7051 Q198.8486 198.7051 198.3486 199.1426 Q197.8643 199.5645 197.8643 200.752 L197.8643 204.1582 L196.8174 204.1582 ZM205.7881 203.2207 L205.9443 204.1426 Q205.4912 204.2363 205.1475 204.2363 Q204.5693 204.2363 204.2568 204.0645 Q203.9443 203.877 203.8037 203.5801 Q203.6787 203.2832 203.6787 202.3301 L203.6787 198.752 L202.9131 198.752 L202.9131 197.9395 L203.6787 197.9395 L203.6787 196.3926 L204.7256 195.7676 L204.7256 197.9395 L205.7881 197.9395 L205.7881 198.752 L204.7256 198.752 L204.7256 202.3926 Q204.7256 202.8457 204.7725 202.9707 Q204.835 203.0957 204.96 203.1738 Q205.085 203.252 205.3193 203.252 Q205.5068 203.252 205.7881 203.2207 Z" clip-path="url(#clipPath3)" stroke="none"/>
          </g>
        </g>
      </a>
    </g>
    <g onmouseout="HideTooltip(evt)" id="y.node.1" onmousemove="ShowTooltip(evt)">
      <a target="_blank" xlink:type="simple" xlink:href="https://dstl.github.io/eleatics/argumentation/coronavirus/information.xhtml#accidentshappen" xlink:show="new">
        <g fill="url(#linearGradient2)" text-rendering="geometricPrecision" shape-rendering="geometricPrecision" transform="matrix(1,0,0,1,-5,15)" stroke="url(#linearGradient2)">
          <path d="M20 0 L138 0 L138 46 L20 46 Z" stroke="none"/>
        </g>
        <g text-rendering="geometricPrecision" stroke-miterlimit="1.45" shape-rendering="geometricPrecision" transform="matrix(1,0,0,1,-5,15)" stroke-linecap="butt">
          <path fill="none" d="M20 0 L138 0 L138 46 L20 46 Z"/>
        </g>
        <g>
          <g text-rendering="geometricPrecision" shape-rendering="geometricPrecision" transform="matrix(1,0,0,1,-5,15)">
            <path d="M24.4033 18.9707 L24.4033 10.377 L25.4658 10.377 L25.4658 18.9707 L24.4033 18.9707 ZM31.1631 18.2051 Q30.5693 18.7051 30.0225 18.9082 Q29.4912 19.1113 28.8662 19.1113 Q27.835 19.1113 27.2881 18.6113 Q26.7412 18.1113 26.7412 17.3301 Q26.7412 16.877 26.9443 16.502 Q27.1475 16.1113 27.4912 15.8926 Q27.835 15.6582 28.2568 15.5488 Q28.5537 15.4551 29.1943 15.377 Q30.46 15.2363 31.0693 15.0176 Q31.0693 14.7988 31.0693 14.752 Q31.0693 14.0957 30.7725 13.8301 Q30.3662 13.4863 29.5693 13.4863 Q28.835 13.4863 28.4756 13.752 Q28.1162 14.002 27.9443 14.6582 L26.9131 14.5176 Q27.0537 13.8613 27.3818 13.4551 Q27.71 13.0488 28.3193 12.8301 Q28.9287 12.6113 29.7256 12.6113 Q30.5225 12.6113 31.0225 12.7988 Q31.5225 12.9863 31.7568 13.2676 Q31.9912 13.5488 32.085 13.9863 Q32.1318 14.252 32.1318 14.9551 L32.1318 16.3613 Q32.1318 17.8301 32.1943 18.2207 Q32.2725 18.6113 32.4756 18.9707 L31.3662 18.9707 Q31.21 18.6426 31.1631 18.2051 ZM31.0693 15.8457 Q30.4912 16.0801 29.3506 16.252 Q28.6943 16.3457 28.4287 16.4707 Q28.1631 16.5801 28.0068 16.7988 Q27.8662 17.0176 27.8662 17.2988 Q27.8662 17.7207 28.1787 18.002 Q28.5068 18.2832 29.1162 18.2832 Q29.7256 18.2832 30.1943 18.0176 Q30.6787 17.752 30.8975 17.2832 Q31.0693 16.9238 31.0693 16.2363 L31.0693 15.8457 ZM34.7432 18.9707 L33.7588 18.9707 L33.7588 10.377 L34.8213 10.377 L34.8213 13.4395 Q35.4932 12.6113 36.5244 12.6113 Q37.1025 12.6113 37.6025 12.8457 Q38.1182 13.0645 38.4463 13.4863 Q38.79 13.9082 38.9775 14.502 Q39.165 15.0957 39.165 15.7676 Q39.165 17.3613 38.3682 18.2363 Q37.5713 19.1113 36.4775 19.1113 Q35.3682 19.1113 34.7432 18.1895 L34.7432 18.9707 ZM34.7275 15.8145 Q34.7275 16.9238 35.04 17.4238 Q35.54 18.2363 36.3838 18.2363 Q37.0713 18.2363 37.5713 17.6426 Q38.0869 17.0488 38.0869 15.8457 Q38.0869 14.627 37.6025 14.0488 Q37.1182 13.4707 36.4307 13.4707 Q35.7432 13.4707 35.2275 14.0801 Q34.7275 14.6738 34.7275 15.8145 ZM40.0576 15.8613 Q40.0576 14.127 41.0107 13.2988 Q41.8076 12.6113 42.9639 12.6113 Q44.2451 12.6113 45.0576 13.4551 Q45.8857 14.2832 45.8857 15.7676 Q45.8857 16.9707 45.5264 17.6582 Q45.167 18.3457 44.4639 18.7363 Q43.7764 19.1113 42.9639 19.1113 Q41.667 19.1113 40.8545 18.2832 Q40.0576 17.4395 40.0576 15.8613 ZM41.1357 15.8613 Q41.1357 17.0488 41.6514 17.6426 Q42.1826 18.2363 42.9639 18.2363 Q43.7607 18.2363 44.2764 17.6426 Q44.792 17.0488 44.792 15.8301 Q44.792 14.6738 44.2607 14.0801 Q43.7451 13.4863 42.9639 13.4863 Q42.1826 13.4863 41.6514 14.0801 Q41.1357 14.6582 41.1357 15.8613 ZM47.1064 18.9707 L47.1064 12.752 L48.0596 12.752 L48.0596 13.6895 Q48.4189 13.0332 48.7158 12.8301 Q49.0283 12.6113 49.4033 12.6113 Q49.9346 12.6113 50.4814 12.9395 L50.1221 13.9238 Q49.7314 13.6895 49.3564 13.6895 Q48.9971 13.6895 48.7158 13.9082 Q48.4502 14.1113 48.3408 14.4863 Q48.1533 15.0488 48.1533 15.7051 L48.1533 18.9707 L47.1064 18.9707 ZM55.1807 18.2051 Q54.5869 18.7051 54.04 18.9082 Q53.5088 19.1113 52.8838 19.1113 Q51.8525 19.1113 51.3057 18.6113 Q50.7588 18.1113 50.7588 17.3301 Q50.7588 16.877 50.9619 16.502 Q51.165 16.1113 51.5088 15.8926 Q51.8525 15.6582 52.2744 15.5488 Q52.5713 15.4551 53.2119 15.377 Q54.4775 15.2363 55.0869 15.0176 Q55.0869 14.7988 55.0869 14.752 Q55.0869 14.0957 54.79 13.8301 Q54.3838 13.4863 53.5869 13.4863 Q52.8525 13.4863 52.4932 13.752 Q52.1338 14.002 51.9619 14.6582 L50.9307 14.5176 Q51.0713 13.8613 51.3994 13.4551 Q51.7275 13.0488 52.3369 12.8301 Q52.9463 12.6113 53.7432 12.6113 Q54.54 12.6113 55.04 12.7988 Q55.54 12.9863 55.7744 13.2676 Q56.0088 13.5488 56.1025 13.9863 Q56.1494 14.252 56.1494 14.9551 L56.1494 16.3613 Q56.1494 17.8301 56.2119 18.2207 Q56.29 18.6113 56.4932 18.9707 L55.3838 18.9707 Q55.2275 18.6426 55.1807 18.2051 ZM55.0869 15.8457 Q54.5088 16.0801 53.3682 16.252 Q52.7119 16.3457 52.4463 16.4707 Q52.1807 16.5801 52.0244 16.7988 Q51.8838 17.0176 51.8838 17.2988 Q51.8838 17.7207 52.1963 18.002 Q52.5244 18.2832 53.1338 18.2832 Q53.7432 18.2832 54.2119 18.0176 Q54.6963 17.752 54.915 17.2832 Q55.0869 16.9238 55.0869 16.2363 L55.0869 15.8457 ZM60.0889 18.0332 L60.2451 18.9551 Q59.792 19.0488 59.4482 19.0488 Q58.8701 19.0488 58.5576 18.877 Q58.2451 18.6895 58.1045 18.3926 Q57.9795 18.0957 57.9795 17.1426 L57.9795 13.5645 L57.2139 13.5645 L57.2139 12.752 L57.9795 12.752 L57.9795 11.2051 L59.0264 10.5801 L59.0264 12.752 L60.0889 12.752 L60.0889 13.5645 L59.0264 13.5645 L59.0264 17.2051 Q59.0264 17.6582 59.0732 17.7832 Q59.1357 17.9082 59.2607 17.9863 Q59.3857 18.0645 59.6201 18.0645 Q59.8076 18.0645 60.0889 18.0332 ZM60.7354 15.8613 Q60.7354 14.127 61.6885 13.2988 Q62.4854 12.6113 63.6416 12.6113 Q64.9229 12.6113 65.7354 13.4551 Q66.5635 14.2832 66.5635 15.7676 Q66.5635 16.9707 66.2041 17.6582 Q65.8447 18.3457 65.1416 18.7363 Q64.4541 19.1113 63.6416 19.1113 Q62.3447 19.1113 61.5322 18.2832 Q60.7354 17.4395 60.7354 15.8613 ZM61.8135 15.8613 Q61.8135 17.0488 62.3291 17.6426 Q62.8604 18.2363 63.6416 18.2363 Q64.4385 18.2363 64.9541 17.6426 Q65.4697 17.0488 65.4697 15.8301 Q65.4697 14.6738 64.9385 14.0801 Q64.4229 13.4863 63.6416 13.4863 Q62.8604 13.4863 62.3291 14.0801 Q61.8135 14.6582 61.8135 15.8613 ZM67.7842 18.9707 L67.7842 12.752 L68.7373 12.752 L68.7373 13.6895 Q69.0967 13.0332 69.3936 12.8301 Q69.7061 12.6113 70.0811 12.6113 Q70.6123 12.6113 71.1592 12.9395 L70.7998 13.9238 Q70.4092 13.6895 70.0342 13.6895 Q69.6748 13.6895 69.3936 13.9082 Q69.1279 14.1113 69.0186 14.4863 Q68.8311 15.0488 68.8311 15.7051 L68.8311 18.9707 L67.7842 18.9707 ZM71.749 21.3613 L71.624 20.377 Q71.9678 20.4707 72.2334 20.4707 Q72.5771 20.4707 72.7803 20.3457 Q72.999 20.2363 73.1396 20.0332 Q73.2334 19.8613 73.4678 19.2363 Q73.4834 19.1582 73.5615 18.9863 L71.1865 12.752 L72.3271 12.752 L73.624 16.3457 Q73.874 17.0332 74.0771 17.7988 Q74.2646 17.0645 74.5146 16.377 L75.8428 12.752 L76.8896 12.752 L74.5303 19.0801 Q74.1396 20.0957 73.9365 20.4863 Q73.6553 21.0176 73.2803 21.252 Q72.9209 21.502 72.4209 21.502 Q72.124 21.502 71.749 21.3613 ZM85.1924 18.2051 Q84.5986 18.7051 84.0518 18.9082 Q83.5205 19.1113 82.8955 19.1113 Q81.8643 19.1113 81.3174 18.6113 Q80.7705 18.1113 80.7705 17.3301 Q80.7705 16.877 80.9736 16.502 Q81.1768 16.1113 81.5205 15.8926 Q81.8643 15.6582 82.2861 15.5488 Q82.583 15.4551 83.2236 15.377 Q84.4893 15.2363 85.0986 15.0176 Q85.0986 14.7988 85.0986 14.752 Q85.0986 14.0957 84.8018 13.8301 Q84.3955 13.4863 83.5986 13.4863 Q82.8643 13.4863 82.5049 13.752 Q82.1455 14.002 81.9736 14.6582 L80.9424 14.5176 Q81.083 13.8613 81.4111 13.4551 Q81.7393 13.0488 82.3486 12.8301 Q82.958 12.6113 83.7549 12.6113 Q84.5518 12.6113 85.0518 12.7988 Q85.5518 12.9863 85.7861 13.2676 Q86.0205 13.5488 86.1143 13.9863 Q86.1611 14.252 86.1611 14.9551 L86.1611 16.3613 Q86.1611 17.8301 86.2236 18.2207 Q86.3018 18.6113 86.5049 18.9707 L85.3955 18.9707 Q85.2393 18.6426 85.1924 18.2051 ZM85.0986 15.8457 Q84.5205 16.0801 83.3799 16.252 Q82.7236 16.3457 82.458 16.4707 Q82.1924 16.5801 82.0361 16.7988 Q81.8955 17.0176 81.8955 17.2988 Q81.8955 17.7207 82.208 18.002 Q82.5361 18.2832 83.1455 18.2832 Q83.7549 18.2832 84.2236 18.0176 Q84.708 17.752 84.9268 17.2832 Q85.0986 16.9238 85.0986 16.2363 L85.0986 15.8457 ZM91.8662 16.6895 L92.8975 16.8301 Q92.7256 17.8926 92.0225 18.502 Q91.3193 19.1113 90.3037 19.1113 Q89.0225 19.1113 88.2412 18.2832 Q87.4756 17.4395 87.4756 15.877 Q87.4756 14.877 87.8037 14.127 Q88.1475 13.3613 88.8193 12.9863 Q89.5068 12.6113 90.3193 12.6113 Q91.3193 12.6113 91.96 13.127 Q92.6162 13.627 92.8037 14.5801 L91.7725 14.7363 Q91.6318 14.1113 91.2568 13.7988 Q90.8818 13.4707 90.3506 13.4707 Q89.5537 13.4707 89.0537 14.0488 Q88.5537 14.6113 88.5537 15.8457 Q88.5537 17.1113 89.0381 17.6738 Q89.5225 18.2363 90.2881 18.2363 Q90.9131 18.2363 91.3193 17.8613 Q91.7412 17.4863 91.8662 16.6895 ZM97.8662 16.6895 L98.8975 16.8301 Q98.7256 17.8926 98.0225 18.502 Q97.3193 19.1113 96.3037 19.1113 Q95.0225 19.1113 94.2412 18.2832 Q93.4756 17.4395 93.4756 15.877 Q93.4756 14.877 93.8037 14.127 Q94.1475 13.3613 94.8193 12.9863 Q95.5068 12.6113 96.3193 12.6113 Q97.3193 12.6113 97.96 13.127 Q98.6162 13.627 98.8037 14.5801 L97.7725 14.7363 Q97.6318 14.1113 97.2568 13.7988 Q96.8818 13.4707 96.3506 13.4707 Q95.5537 13.4707 95.0537 14.0488 Q94.5537 14.6113 94.5537 15.8457 Q94.5537 17.1113 95.0381 17.6738 Q95.5225 18.2363 96.2881 18.2363 Q96.9131 18.2363 97.3193 17.8613 Q97.7412 17.4863 97.8662 16.6895 ZM99.8037 11.5957 L99.8037 10.377 L100.8662 10.377 L100.8662 11.5957 L99.8037 11.5957 ZM99.8037 18.9707 L99.8037 12.752 L100.8662 12.752 L100.8662 18.9707 L99.8037 18.9707 ZM106.501 18.9707 L106.501 18.1895 Q105.9072 19.1113 104.7666 19.1113 Q104.0166 19.1113 103.3916 18.7051 Q102.7666 18.2832 102.4229 17.5488 Q102.0791 16.8145 102.0791 15.8613 Q102.0791 14.9395 102.3916 14.1738 Q102.7041 13.4082 103.3291 13.0176 Q103.9541 12.6113 104.7197 12.6113 Q105.2822 12.6113 105.7197 12.8457 Q106.1572 13.0801 106.4385 13.4551 L106.4385 10.377 L107.4854 10.377 L107.4854 18.9707 L106.501 18.9707 ZM103.1729 15.8613 Q103.1729 17.0645 103.6729 17.6582 Q104.1729 18.2363 104.8604 18.2363 Q105.5479 18.2363 106.0322 17.6738 Q106.5166 17.1113 106.5166 15.9551 Q106.5166 14.6738 106.0166 14.0801 Q105.5322 13.4863 104.8135 13.4863 Q104.1104 13.4863 103.6416 14.0645 Q103.1729 14.627 103.1729 15.8613 ZM113.3936 16.9707 L114.4873 17.0957 Q114.2373 18.0488 113.5342 18.5801 Q112.8311 19.1113 111.7529 19.1113 Q110.3936 19.1113 109.5811 18.2676 Q108.7842 17.4238 108.7842 15.9082 Q108.7842 14.3457 109.5967 13.4863 Q110.4092 12.6113 111.6904 12.6113 Q112.9404 12.6113 113.7217 13.4551 Q114.5186 14.2988 114.5186 15.8457 Q114.5186 15.9395 114.5186 16.127 L109.8779 16.127 Q109.9404 17.1582 110.4561 17.7051 Q110.9717 18.2363 111.7529 18.2363 Q112.3311 18.2363 112.7373 17.9395 Q113.1592 17.627 113.3936 16.9707 ZM109.9404 15.2676 L113.4092 15.2676 Q113.3467 14.4707 113.0186 14.0801 Q112.5029 13.4707 111.7061 13.4707 Q110.9717 13.4707 110.4717 13.9551 Q109.9873 14.4395 109.9404 15.2676 ZM115.8174 18.9707 L115.8174 12.752 L116.7549 12.752 L116.7549 13.627 Q117.4424 12.6113 118.7393 12.6113 Q119.3018 12.6113 119.7705 12.8145 Q120.2549 13.0176 120.4893 13.3457 Q120.7236 13.6738 120.8174 14.1113 Q120.8643 14.4082 120.8643 15.1426 L120.8643 18.9707 L119.8174 18.9707 L119.8174 15.1895 Q119.8174 14.5332 119.6924 14.2207 Q119.5674 13.9082 119.2549 13.7207 Q118.9424 13.5176 118.5205 13.5176 Q117.8486 13.5176 117.3486 13.9551 Q116.8643 14.377 116.8643 15.5645 L116.8643 18.9707 L115.8174 18.9707 ZM124.7881 18.0332 L124.9443 18.9551 Q124.4912 19.0488 124.1475 19.0488 Q123.5693 19.0488 123.2568 18.877 Q122.9443 18.6895 122.8037 18.3926 Q122.6787 18.0957 122.6787 17.1426 L122.6787 13.5645 L121.9131 13.5645 L121.9131 12.752 L122.6787 12.752 L122.6787 11.2051 L123.7256 10.5801 L123.7256 12.752 L124.7881 12.752 L124.7881 13.5645 L123.7256 13.5645 L123.7256 17.2051 Q123.7256 17.6582 123.7725 17.7832 Q123.835 17.9082 123.96 17.9863 Q124.085 18.0645 124.3193 18.0645 Q124.5068 18.0645 124.7881 18.0332 ZM125.4033 17.1113 L126.4346 16.9551 Q126.5283 17.5801 126.9189 17.9082 Q127.3252 18.2363 128.0596 18.2363 Q128.7783 18.2363 129.1221 17.9551 Q129.4814 17.6582 129.4814 17.252 Q129.4814 16.8926 129.1689 16.6895 Q128.9502 16.5488 128.0908 16.3301 Q126.9346 16.0332 126.4814 15.8301 Q126.0439 15.6113 125.8096 15.2363 Q125.5752 14.8613 125.5752 14.3926 Q125.5752 13.9863 125.7627 13.627 Q125.9502 13.2676 126.2783 13.0332 Q126.5283 12.8613 126.9502 12.7363 Q127.3721 12.6113 127.8721 12.6113 Q128.5908 12.6113 129.1377 12.8301 Q129.7002 13.0332 129.9658 13.3926 Q130.2314 13.752 130.3252 14.3457 L129.2939 14.4863 Q129.2314 14.0176 128.8877 13.752 Q128.5596 13.4707 127.9346 13.4707 Q127.2158 13.4707 126.9033 13.7207 Q126.5908 13.9551 126.5908 14.2832 Q126.5908 14.4863 126.7158 14.6426 Q126.8564 14.8145 127.1221 14.9238 Q127.2783 14.9863 128.0596 15.1895 Q129.1846 15.502 129.6221 15.6895 Q130.0596 15.877 130.3096 16.2363 Q130.5596 16.5957 130.5596 17.1426 Q130.5596 17.6738 130.2471 18.1426 Q129.9502 18.5957 129.3721 18.8613 Q128.7939 19.1113 128.0596 19.1113 Q126.8408 19.1113 126.2002 18.6113 Q125.5752 18.0957 125.4033 17.1113 Z" stroke="none" clip-path="url(#clipPath4)"/>
            <path d="M55.4658 34.0645 L55.4658 33.2832 Q54.8721 34.2051 53.7314 34.2051 Q52.9814 34.2051 52.3564 33.7988 Q51.7314 33.377 51.3877 32.6426 Q51.0439 31.9082 51.0439 30.9551 Q51.0439 30.0332 51.3564 29.2676 Q51.6689 28.502 52.2939 28.1113 Q52.9189 27.7051 53.6846 27.7051 Q54.2471 27.7051 54.6846 27.9395 Q55.1221 28.1738 55.4033 28.5488 L55.4033 25.4707 L56.4502 25.4707 L56.4502 34.0645 L55.4658 34.0645 ZM52.1377 30.9551 Q52.1377 32.1582 52.6377 32.752 Q53.1377 33.3301 53.8252 33.3301 Q54.5127 33.3301 54.9971 32.7676 Q55.4814 32.2051 55.4814 31.0488 Q55.4814 29.7676 54.9814 29.1738 Q54.4971 28.5801 53.7783 28.5801 Q53.0752 28.5801 52.6064 29.1582 Q52.1377 29.7207 52.1377 30.9551 ZM57.7178 30.9551 Q57.7178 29.2207 58.6709 28.3926 Q59.4678 27.7051 60.624 27.7051 Q61.9053 27.7051 62.7178 28.5488 Q63.5459 29.377 63.5459 30.8613 Q63.5459 32.0645 63.1865 32.752 Q62.8271 33.4395 62.124 33.8301 Q61.4365 34.2051 60.624 34.2051 Q59.3271 34.2051 58.5146 33.377 Q57.7178 32.5332 57.7178 30.9551 ZM58.7959 30.9551 Q58.7959 32.1426 59.3115 32.7363 Q59.8428 33.3301 60.624 33.3301 Q61.4209 33.3301 61.9365 32.7363 Q62.4521 32.1426 62.4521 30.9238 Q62.4521 29.7676 61.9209 29.1738 Q61.4053 28.5801 60.624 28.5801 Q59.8428 28.5801 59.3115 29.1738 Q58.7959 29.752 58.7959 30.9551 ZM68.1162 34.0645 L68.1162 25.4707 L69.1631 25.4707 L69.1631 28.5488 Q69.8975 27.7051 71.0225 27.7051 Q71.7256 27.7051 72.2256 27.9863 Q72.7412 28.252 72.96 28.7363 Q73.1787 29.2051 73.1787 30.127 L73.1787 34.0645 L72.1318 34.0645 L72.1318 30.127 Q72.1318 29.3301 71.7881 28.9707 Q71.4443 28.6113 70.8193 28.6113 Q70.3506 28.6113 69.9287 28.8613 Q69.5225 29.0957 69.335 29.5176 Q69.1631 29.9238 69.1631 30.6582 L69.1631 34.0645 L68.1162 34.0645 ZM78.8525 33.2988 Q78.2588 33.7988 77.7119 34.002 Q77.1807 34.2051 76.5557 34.2051 Q75.5244 34.2051 74.9775 33.7051 Q74.4307 33.2051 74.4307 32.4238 Q74.4307 31.9707 74.6338 31.5957 Q74.8369 31.2051 75.1807 30.9863 Q75.5244 30.752 75.9463 30.6426 Q76.2432 30.5488 76.8838 30.4707 Q78.1494 30.3301 78.7588 30.1113 Q78.7588 29.8926 78.7588 29.8457 Q78.7588 29.1895 78.4619 28.9238 Q78.0557 28.5801 77.2588 28.5801 Q76.5244 28.5801 76.165 28.8457 Q75.8057 29.0957 75.6338 29.752 L74.6025 29.6113 Q74.7432 28.9551 75.0713 28.5488 Q75.3994 28.1426 76.0088 27.9238 Q76.6182 27.7051 77.415 27.7051 Q78.2119 27.7051 78.7119 27.8926 Q79.2119 28.0801 79.4463 28.3613 Q79.6807 28.6426 79.7744 29.0801 Q79.8213 29.3457 79.8213 30.0488 L79.8213 31.4551 Q79.8213 32.9238 79.8838 33.3145 Q79.9619 33.7051 80.165 34.0645 L79.0557 34.0645 Q78.8994 33.7363 78.8525 33.2988 ZM78.7588 30.9395 Q78.1807 31.1738 77.04 31.3457 Q76.3838 31.4395 76.1182 31.5645 Q75.8525 31.6738 75.6963 31.8926 Q75.5557 32.1113 75.5557 32.3926 Q75.5557 32.8145 75.8682 33.0957 Q76.1963 33.377 76.8057 33.377 Q77.415 33.377 77.8838 33.1113 Q78.3682 32.8457 78.5869 32.377 Q78.7588 32.0176 78.7588 31.3301 L78.7588 30.9395 ZM81.4639 36.4551 L81.4639 27.8457 L82.417 27.8457 L82.417 28.6426 Q82.7607 28.1738 83.1826 27.9395 Q83.6201 27.7051 84.2295 27.7051 Q85.0264 27.7051 85.6357 28.1113 Q86.2451 28.5176 86.542 29.2676 Q86.8545 30.0176 86.8545 30.9082 Q86.8545 31.8613 86.5107 32.627 Q86.1826 33.3926 85.5264 33.7988 Q84.8701 34.2051 84.1514 34.2051 Q83.6201 34.2051 83.1982 33.9863 Q82.7764 33.752 82.5107 33.4238 L82.5107 36.4551 L81.4639 36.4551 ZM82.417 30.9863 Q82.417 32.1895 82.9014 32.7676 Q83.3857 33.3301 84.0732 33.3301 Q84.7764 33.3301 85.2764 32.7363 Q85.7764 32.1426 85.7764 30.8926 Q85.7764 29.7051 85.292 29.127 Q84.8076 28.5332 84.1201 28.5332 Q83.4482 28.5332 82.9326 29.1582 Q82.417 29.7832 82.417 30.9863 ZM88.1377 36.4551 L88.1377 27.8457 L89.0908 27.8457 L89.0908 28.6426 Q89.4346 28.1738 89.8564 27.9395 Q90.2939 27.7051 90.9033 27.7051 Q91.7002 27.7051 92.3096 28.1113 Q92.9189 28.5176 93.2158 29.2676 Q93.5283 30.0176 93.5283 30.9082 Q93.5283 31.8613 93.1846 32.627 Q92.8564 33.3926 92.2002 33.7988 Q91.5439 34.2051 90.8252 34.2051 Q90.2939 34.2051 89.8721 33.9863 Q89.4502 33.752 89.1846 33.4238 L89.1846 36.4551 L88.1377 36.4551 ZM89.0908 30.9863 Q89.0908 32.1895 89.5752 32.7676 Q90.0596 33.3301 90.7471 33.3301 Q91.4502 33.3301 91.9502 32.7363 Q92.4502 32.1426 92.4502 30.8926 Q92.4502 29.7051 91.9658 29.127 Q91.4814 28.5332 90.7939 28.5332 Q90.1221 28.5332 89.6064 29.1582 Q89.0908 29.7832 89.0908 30.9863 ZM99.0615 32.0645 L100.1553 32.1895 Q99.9053 33.1426 99.2021 33.6738 Q98.499 34.2051 97.4209 34.2051 Q96.0615 34.2051 95.249 33.3613 Q94.4521 32.5176 94.4521 31.002 Q94.4521 29.4395 95.2646 28.5801 Q96.0771 27.7051 97.3584 27.7051 Q98.6084 27.7051 99.3896 28.5488 Q100.1865 29.3926 100.1865 30.9395 Q100.1865 31.0332 100.1865 31.2207 L95.5459 31.2207 Q95.6084 32.252 96.124 32.7988 Q96.6396 33.3301 97.4209 33.3301 Q97.999 33.3301 98.4053 33.0332 Q98.8271 32.7207 99.0615 32.0645 ZM95.6084 30.3613 L99.0771 30.3613 Q99.0146 29.5645 98.6865 29.1738 Q98.1709 28.5645 97.374 28.5645 Q96.6396 28.5645 96.1396 29.0488 Q95.6553 29.5332 95.6084 30.3613 ZM101.4854 34.0645 L101.4854 27.8457 L102.4229 27.8457 L102.4229 28.7207 Q103.1104 27.7051 104.4072 27.7051 Q104.9697 27.7051 105.4385 27.9082 Q105.9229 28.1113 106.1572 28.4395 Q106.3916 28.7676 106.4854 29.2051 Q106.5322 29.502 106.5322 30.2363 L106.5322 34.0645 L105.4854 34.0645 L105.4854 30.2832 Q105.4854 29.627 105.3604 29.3145 Q105.2354 29.002 104.9229 28.8145 Q104.6104 28.6113 104.1885 28.6113 Q103.5166 28.6113 103.0166 29.0488 Q102.5322 29.4707 102.5322 30.6582 L102.5322 34.0645 L101.4854 34.0645 Z" clip-path="url(#clipPath4)" stroke="none"/>
          </g>
        </g>
      </a>
    </g>
    <g onmouseout="HideTooltip(evt)" id="y.node.2" onmousemove="ShowTooltip(evt)">
      <a target="_blank" xlink:type="simple" xlink:href="https://dstl.github.io/eleatics/argumentation/coronavirus/information.xhtml#labinfection" xlink:show="new">
        <g fill="url(#linearGradient3)" text-rendering="geometricPrecision" shape-rendering="geometricPrecision" transform="matrix(1,0,0,1,-5,15)" stroke="url(#linearGradient3)">
          <path d="M168 0 L286 0 L286 46 L168 46 Z" stroke="none"/>
        </g>
        <g text-rendering="geometricPrecision" stroke-miterlimit="1.45" shape-rendering="geometricPrecision" transform="matrix(1,0,0,1,-5,15)" stroke-linecap="butt">
          <path fill="none" d="M168 0 L286 0 L286 46 L168 46 Z"/>
        </g>
        <g>
          <g text-rendering="geometricPrecision" shape-rendering="geometricPrecision" transform="matrix(1,0,0,1,-5,15)">
            <path d="M175.4033 18.9707 L175.4033 10.377 L176.4658 10.377 L176.4658 18.9707 L175.4033 18.9707 ZM182.1631 18.2051 Q181.5693 18.7051 181.0225 18.9082 Q180.4912 19.1113 179.8662 19.1113 Q178.835 19.1113 178.2881 18.6113 Q177.7412 18.1113 177.7412 17.3301 Q177.7412 16.877 177.9443 16.502 Q178.1475 16.1113 178.4912 15.8926 Q178.835 15.6582 179.2568 15.5488 Q179.5537 15.4551 180.1943 15.377 Q181.46 15.2363 182.0693 15.0176 Q182.0693 14.7988 182.0693 14.752 Q182.0693 14.0957 181.7725 13.8301 Q181.3662 13.4863 180.5693 13.4863 Q179.835 13.4863 179.4756 13.752 Q179.1162 14.002 178.9443 14.6582 L177.9131 14.5176 Q178.0537 13.8613 178.3818 13.4551 Q178.71 13.0488 179.3193 12.8301 Q179.9287 12.6113 180.7256 12.6113 Q181.5225 12.6113 182.0225 12.7988 Q182.5225 12.9863 182.7568 13.2676 Q182.9912 13.5488 183.085 13.9863 Q183.1318 14.252 183.1318 14.9551 L183.1318 16.3613 Q183.1318 17.8301 183.1943 18.2207 Q183.2725 18.6113 183.4756 18.9707 L182.3662 18.9707 Q182.21 18.6426 182.1631 18.2051 ZM182.0693 15.8457 Q181.4912 16.0801 180.3506 16.252 Q179.6943 16.3457 179.4287 16.4707 Q179.1631 16.5801 179.0068 16.7988 Q178.8662 17.0176 178.8662 17.2988 Q178.8662 17.7207 179.1787 18.002 Q179.5068 18.2832 180.1162 18.2832 Q180.7256 18.2832 181.1943 18.0176 Q181.6787 17.752 181.8975 17.2832 Q182.0693 16.9238 182.0693 16.2363 L182.0693 15.8457 ZM185.7432 18.9707 L184.7588 18.9707 L184.7588 10.377 L185.8213 10.377 L185.8213 13.4395 Q186.4932 12.6113 187.5244 12.6113 Q188.1025 12.6113 188.6025 12.8457 Q189.1182 13.0645 189.4463 13.4863 Q189.79 13.9082 189.9775 14.502 Q190.165 15.0957 190.165 15.7676 Q190.165 17.3613 189.3682 18.2363 Q188.5713 19.1113 187.4775 19.1113 Q186.3682 19.1113 185.7432 18.1895 L185.7432 18.9707 ZM185.7275 15.8145 Q185.7275 16.9238 186.04 17.4238 Q186.54 18.2363 187.3838 18.2363 Q188.0713 18.2363 188.5713 17.6426 Q189.0869 17.0488 189.0869 15.8457 Q189.0869 14.627 188.6025 14.0488 Q188.1182 13.4707 187.4307 13.4707 Q186.7432 13.4707 186.2275 14.0801 Q185.7275 14.6738 185.7275 15.8145 ZM191.0576 15.8613 Q191.0576 14.127 192.0107 13.2988 Q192.8076 12.6113 193.9639 12.6113 Q195.2451 12.6113 196.0576 13.4551 Q196.8857 14.2832 196.8857 15.7676 Q196.8857 16.9707 196.5264 17.6582 Q196.167 18.3457 195.4639 18.7363 Q194.7764 19.1113 193.9639 19.1113 Q192.667 19.1113 191.8545 18.2832 Q191.0576 17.4395 191.0576 15.8613 ZM192.1357 15.8613 Q192.1357 17.0488 192.6514 17.6426 Q193.1826 18.2363 193.9639 18.2363 Q194.7607 18.2363 195.2764 17.6426 Q195.792 17.0488 195.792 15.8301 Q195.792 14.6738 195.2607 14.0801 Q194.7451 13.4863 193.9639 13.4863 Q193.1826 13.4863 192.6514 14.0801 Q192.1357 14.6582 192.1357 15.8613 ZM198.1064 18.9707 L198.1064 12.752 L199.0596 12.752 L199.0596 13.6895 Q199.4189 13.0332 199.7158 12.8301 Q200.0283 12.6113 200.4033 12.6113 Q200.9346 12.6113 201.4814 12.9395 L201.1221 13.9238 Q200.7314 13.6895 200.3564 13.6895 Q199.9971 13.6895 199.7158 13.9082 Q199.4502 14.1113 199.3408 14.4863 Q199.1533 15.0488 199.1533 15.7051 L199.1533 18.9707 L198.1064 18.9707 ZM206.1807 18.2051 Q205.5869 18.7051 205.04 18.9082 Q204.5088 19.1113 203.8838 19.1113 Q202.8525 19.1113 202.3057 18.6113 Q201.7588 18.1113 201.7588 17.3301 Q201.7588 16.877 201.9619 16.502 Q202.165 16.1113 202.5088 15.8926 Q202.8525 15.6582 203.2744 15.5488 Q203.5713 15.4551 204.2119 15.377 Q205.4775 15.2363 206.0869 15.0176 Q206.0869 14.7988 206.0869 14.752 Q206.0869 14.0957 205.79 13.8301 Q205.3838 13.4863 204.5869 13.4863 Q203.8525 13.4863 203.4932 13.752 Q203.1338 14.002 202.9619 14.6582 L201.9307 14.5176 Q202.0713 13.8613 202.3994 13.4551 Q202.7275 13.0488 203.3369 12.8301 Q203.9463 12.6113 204.7432 12.6113 Q205.54 12.6113 206.04 12.7988 Q206.54 12.9863 206.7744 13.2676 Q207.0088 13.5488 207.1025 13.9863 Q207.1494 14.252 207.1494 14.9551 L207.1494 16.3613 Q207.1494 17.8301 207.2119 18.2207 Q207.29 18.6113 207.4932 18.9707 L206.3838 18.9707 Q206.2275 18.6426 206.1807 18.2051 ZM206.0869 15.8457 Q205.5088 16.0801 204.3682 16.252 Q203.7119 16.3457 203.4463 16.4707 Q203.1807 16.5801 203.0244 16.7988 Q202.8838 17.0176 202.8838 17.2988 Q202.8838 17.7207 203.1963 18.002 Q203.5244 18.2832 204.1338 18.2832 Q204.7432 18.2832 205.2119 18.0176 Q205.6963 17.752 205.915 17.2832 Q206.0869 16.9238 206.0869 16.2363 L206.0869 15.8457 ZM211.0889 18.0332 L211.2451 18.9551 Q210.792 19.0488 210.4482 19.0488 Q209.8701 19.0488 209.5576 18.877 Q209.2451 18.6895 209.1045 18.3926 Q208.9795 18.0957 208.9795 17.1426 L208.9795 13.5645 L208.2139 13.5645 L208.2139 12.752 L208.9795 12.752 L208.9795 11.2051 L210.0264 10.5801 L210.0264 12.752 L211.0889 12.752 L211.0889 13.5645 L210.0264 13.5645 L210.0264 17.2051 Q210.0264 17.6582 210.0732 17.7832 Q210.1357 17.9082 210.2607 17.9863 Q210.3857 18.0645 210.6201 18.0645 Q210.8076 18.0645 211.0889 18.0332 ZM211.7354 15.8613 Q211.7354 14.127 212.6885 13.2988 Q213.4854 12.6113 214.6416 12.6113 Q215.9229 12.6113 216.7354 13.4551 Q217.5635 14.2832 217.5635 15.7676 Q217.5635 16.9707 217.2041 17.6582 Q216.8447 18.3457 216.1416 18.7363 Q215.4541 19.1113 214.6416 19.1113 Q213.3447 19.1113 212.5322 18.2832 Q211.7354 17.4395 211.7354 15.8613 ZM212.8135 15.8613 Q212.8135 17.0488 213.3291 17.6426 Q213.8604 18.2363 214.6416 18.2363 Q215.4385 18.2363 215.9541 17.6426 Q216.4697 17.0488 216.4697 15.8301 Q216.4697 14.6738 215.9385 14.0801 Q215.4229 13.4863 214.6416 13.4863 Q213.8604 13.4863 213.3291 14.0801 Q212.8135 14.6582 212.8135 15.8613 ZM218.7842 18.9707 L218.7842 12.752 L219.7373 12.752 L219.7373 13.6895 Q220.0967 13.0332 220.3936 12.8301 Q220.7061 12.6113 221.0811 12.6113 Q221.6123 12.6113 222.1592 12.9395 L221.7998 13.9238 Q221.4092 13.6895 221.0342 13.6895 Q220.6748 13.6895 220.3936 13.9082 Q220.1279 14.1113 220.0186 14.4863 Q219.8311 15.0488 219.8311 15.7051 L219.8311 18.9707 L218.7842 18.9707 ZM222.749 21.3613 L222.624 20.377 Q222.9678 20.4707 223.2334 20.4707 Q223.5771 20.4707 223.7803 20.3457 Q223.999 20.2363 224.1396 20.0332 Q224.2334 19.8613 224.4678 19.2363 Q224.4834 19.1582 224.5615 18.9863 L222.1865 12.752 L223.3271 12.752 L224.624 16.3457 Q224.874 17.0332 225.0771 17.7988 Q225.2646 17.0645 225.5146 16.377 L226.8428 12.752 L227.8896 12.752 L225.5303 19.0801 Q225.1396 20.0957 224.9365 20.4863 Q224.6553 21.0176 224.2803 21.252 Q223.9209 21.502 223.4209 21.502 Q223.124 21.502 222.749 21.3613 ZM232.1299 11.5957 L232.1299 10.377 L233.1924 10.377 L233.1924 11.5957 L232.1299 11.5957 ZM232.1299 18.9707 L232.1299 12.752 L233.1924 12.752 L233.1924 18.9707 L232.1299 18.9707 ZM234.7959 18.9707 L234.7959 12.752 L235.7334 12.752 L235.7334 13.627 Q236.4209 12.6113 237.7178 12.6113 Q238.2803 12.6113 238.749 12.8145 Q239.2334 13.0176 239.4678 13.3457 Q239.7021 13.6738 239.7959 14.1113 Q239.8428 14.4082 239.8428 15.1426 L239.8428 18.9707 L238.7959 18.9707 L238.7959 15.1895 Q238.7959 14.5332 238.6709 14.2207 Q238.5459 13.9082 238.2334 13.7207 Q237.9209 13.5176 237.499 13.5176 Q236.8271 13.5176 236.3271 13.9551 Q235.8428 14.377 235.8428 15.5645 L235.8428 18.9707 L234.7959 18.9707 ZM241.7197 18.9707 L241.7197 13.5645 L240.7822 13.5645 L240.7822 12.752 L241.7197 12.752 L241.7197 12.0801 Q241.7197 11.4551 241.8291 11.1582 Q241.9854 10.7363 242.3604 10.4863 Q242.751 10.2363 243.4385 10.2363 Q243.8916 10.2363 244.4229 10.3457 L244.2666 11.252 Q243.9385 11.2051 243.6416 11.2051 Q243.1572 11.2051 242.9541 11.4082 Q242.7666 11.6113 242.7666 12.1738 L242.7666 12.752 L243.9854 12.752 L243.9854 13.5645 L242.7666 13.5645 L242.7666 18.9707 L241.7197 18.9707 ZM249.0537 16.9707 L250.1475 17.0957 Q249.8975 18.0488 249.1943 18.5801 Q248.4912 19.1113 247.4131 19.1113 Q246.0537 19.1113 245.2412 18.2676 Q244.4443 17.4238 244.4443 15.9082 Q244.4443 14.3457 245.2568 13.4863 Q246.0693 12.6113 247.3506 12.6113 Q248.6006 12.6113 249.3818 13.4551 Q250.1787 14.2988 250.1787 15.8457 Q250.1787 15.9395 250.1787 16.127 L245.5381 16.127 Q245.6006 17.1582 246.1162 17.7051 Q246.6318 18.2363 247.4131 18.2363 Q247.9912 18.2363 248.3975 17.9395 Q248.8193 17.627 249.0537 16.9707 ZM245.6006 15.2676 L249.0693 15.2676 Q249.0068 14.4707 248.6787 14.0801 Q248.1631 13.4707 247.3662 13.4707 Q246.6318 13.4707 246.1318 13.9551 Q245.6475 14.4395 245.6006 15.2676 ZM255.54 16.6895 L256.5713 16.8301 Q256.3994 17.8926 255.6963 18.502 Q254.9932 19.1113 253.9775 19.1113 Q252.6963 19.1113 251.915 18.2832 Q251.1494 17.4395 251.1494 15.877 Q251.1494 14.877 251.4775 14.127 Q251.8213 13.3613 252.4932 12.9863 Q253.1807 12.6113 253.9932 12.6113 Q254.9932 12.6113 255.6338 13.127 Q256.29 13.627 256.4775 14.5801 L255.4463 14.7363 Q255.3057 14.1113 254.9307 13.7988 Q254.5557 13.4707 254.0244 13.4707 Q253.2275 13.4707 252.7275 14.0488 Q252.2275 14.6113 252.2275 15.8457 Q252.2275 17.1113 252.7119 17.6738 Q253.1963 18.2363 253.9619 18.2363 Q254.5869 18.2363 254.9932 17.8613 Q255.415 17.4863 255.54 16.6895 ZM259.7744 18.0332 L259.9307 18.9551 Q259.4775 19.0488 259.1338 19.0488 Q258.5557 19.0488 258.2432 18.877 Q257.9307 18.6895 257.79 18.3926 Q257.665 18.0957 257.665 17.1426 L257.665 13.5645 L256.8994 13.5645 L256.8994 12.752 L257.665 12.752 L257.665 11.2051 L258.7119 10.5801 L258.7119 12.752 L259.7744 12.752 L259.7744 13.5645 L258.7119 13.5645 L258.7119 17.2051 Q258.7119 17.6582 258.7588 17.7832 Q258.8213 17.9082 258.9463 17.9863 Q259.0713 18.0645 259.3057 18.0645 Q259.4932 18.0645 259.7744 18.0332 ZM260.8115 11.5957 L260.8115 10.377 L261.874 10.377 L261.874 11.5957 L260.8115 11.5957 ZM260.8115 18.9707 L260.8115 12.752 L261.874 12.752 L261.874 18.9707 L260.8115 18.9707 ZM263.0869 15.8613 Q263.0869 14.127 264.04 13.2988 Q264.8369 12.6113 265.9932 12.6113 Q267.2744 12.6113 268.0869 13.4551 Q268.915 14.2832 268.915 15.7676 Q268.915 16.9707 268.5557 17.6582 Q268.1963 18.3457 267.4932 18.7363 Q266.8057 19.1113 265.9932 19.1113 Q264.6963 19.1113 263.8838 18.2832 Q263.0869 17.4395 263.0869 15.8613 ZM264.165 15.8613 Q264.165 17.0488 264.6807 17.6426 Q265.2119 18.2363 265.9932 18.2363 Q266.79 18.2363 267.3057 17.6426 Q267.8213 17.0488 267.8213 15.8301 Q267.8213 14.6738 267.29 14.0801 Q266.7744 13.4863 265.9932 13.4863 Q265.2119 13.4863 264.6807 14.0801 Q264.165 14.6582 264.165 15.8613 ZM270.1514 18.9707 L270.1514 12.752 L271.0889 12.752 L271.0889 13.627 Q271.7764 12.6113 273.0732 12.6113 Q273.6357 12.6113 274.1045 12.8145 Q274.5889 13.0176 274.8232 13.3457 Q275.0576 13.6738 275.1514 14.1113 Q275.1982 14.4082 275.1982 15.1426 L275.1982 18.9707 L274.1514 18.9707 L274.1514 15.1895 Q274.1514 14.5332 274.0264 14.2207 Q273.9014 13.9082 273.5889 13.7207 Q273.2764 13.5176 272.8545 13.5176 Q272.1826 13.5176 271.6826 13.9551 Q271.1982 14.377 271.1982 15.5645 L271.1982 18.9707 L270.1514 18.9707 Z" stroke="none" clip-path="url(#clipPath5)"/>
            <path d="M195.8271 31.7832 L196.8584 31.9238 Q196.6865 32.9863 195.9834 33.5957 Q195.2803 34.2051 194.2646 34.2051 Q192.9834 34.2051 192.2021 33.377 Q191.4365 32.5332 191.4365 30.9707 Q191.4365 29.9707 191.7646 29.2207 Q192.1084 28.4551 192.7803 28.0801 Q193.4678 27.7051 194.2803 27.7051 Q195.2803 27.7051 195.9209 28.2207 Q196.5771 28.7207 196.7646 29.6738 L195.7334 29.8301 Q195.5928 29.2051 195.2178 28.8926 Q194.8428 28.5645 194.3115 28.5645 Q193.5146 28.5645 193.0146 29.1426 Q192.5146 29.7051 192.5146 30.9395 Q192.5146 32.2051 192.999 32.7676 Q193.4834 33.3301 194.249 33.3301 Q194.874 33.3301 195.2803 32.9551 Q195.7021 32.5801 195.8271 31.7832 ZM197.374 30.9551 Q197.374 29.2207 198.3271 28.3926 Q199.124 27.7051 200.2803 27.7051 Q201.5615 27.7051 202.374 28.5488 Q203.2021 29.377 203.2021 30.8613 Q203.2021 32.0645 202.8428 32.752 Q202.4834 33.4395 201.7803 33.8301 Q201.0928 34.2051 200.2803 34.2051 Q198.9834 34.2051 198.1709 33.377 Q197.374 32.5332 197.374 30.9551 ZM198.4521 30.9551 Q198.4521 32.1426 198.9678 32.7363 Q199.499 33.3301 200.2803 33.3301 Q201.0771 33.3301 201.5928 32.7363 Q202.1084 32.1426 202.1084 30.9238 Q202.1084 29.7676 201.5771 29.1738 Q201.0615 28.5801 200.2803 28.5801 Q199.499 28.5801 198.9678 29.1738 Q198.4521 29.752 198.4521 30.9551 ZM208.5166 34.0645 L208.5166 33.1426 Q207.7822 34.2051 206.5322 34.2051 Q205.9854 34.2051 205.501 34.002 Q205.0322 33.7832 204.7979 33.4707 Q204.5635 33.1426 204.4697 32.6738 Q204.4072 32.377 204.4072 31.6895 L204.4072 27.8457 L205.4697 27.8457 L205.4697 31.2988 Q205.4697 32.1113 205.5322 32.4082 Q205.626 32.8145 205.9385 33.0645 Q206.2666 33.2988 206.751 33.2988 Q207.2197 33.2988 207.626 33.0645 Q208.0479 32.8145 208.2197 32.3926 Q208.4072 31.9707 208.4072 31.1738 L208.4072 27.8457 L209.4541 27.8457 L209.4541 34.0645 L208.5166 34.0645 ZM211.0811 34.0645 L211.0811 25.4707 L212.1436 25.4707 L212.1436 34.0645 L211.0811 34.0645 ZM217.8096 34.0645 L217.8096 33.2832 Q217.2158 34.2051 216.0752 34.2051 Q215.3252 34.2051 214.7002 33.7988 Q214.0752 33.377 213.7314 32.6426 Q213.3877 31.9082 213.3877 30.9551 Q213.3877 30.0332 213.7002 29.2676 Q214.0127 28.502 214.6377 28.1113 Q215.2627 27.7051 216.0283 27.7051 Q216.5908 27.7051 217.0283 27.9395 Q217.4658 28.1738 217.7471 28.5488 L217.7471 25.4707 L218.7939 25.4707 L218.7939 34.0645 L217.8096 34.0645 ZM214.4814 30.9551 Q214.4814 32.1582 214.9814 32.752 Q215.4814 33.3301 216.1689 33.3301 Q216.8564 33.3301 217.3408 32.7676 Q217.8252 32.2051 217.8252 31.0488 Q217.8252 29.7676 217.3252 29.1738 Q216.8408 28.5801 216.1221 28.5801 Q215.4189 28.5801 214.9502 29.1582 Q214.4814 29.7207 214.4814 30.9551 ZM223.7861 34.0645 L223.7861 25.4707 L224.833 25.4707 L224.833 28.5488 Q225.5674 27.7051 226.6924 27.7051 Q227.3955 27.7051 227.8955 27.9863 Q228.4111 28.252 228.6299 28.7363 Q228.8486 29.2051 228.8486 30.127 L228.8486 34.0645 L227.8018 34.0645 L227.8018 30.127 Q227.8018 29.3301 227.458 28.9707 Q227.1143 28.6113 226.4893 28.6113 Q226.0205 28.6113 225.5986 28.8613 Q225.1924 29.0957 225.0049 29.5176 Q224.833 29.9238 224.833 30.6582 L224.833 34.0645 L223.7861 34.0645 ZM234.5225 33.2988 Q233.9287 33.7988 233.3818 34.002 Q232.8506 34.2051 232.2256 34.2051 Q231.1943 34.2051 230.6475 33.7051 Q230.1006 33.2051 230.1006 32.4238 Q230.1006 31.9707 230.3037 31.5957 Q230.5068 31.2051 230.8506 30.9863 Q231.1943 30.752 231.6162 30.6426 Q231.9131 30.5488 232.5537 30.4707 Q233.8193 30.3301 234.4287 30.1113 Q234.4287 29.8926 234.4287 29.8457 Q234.4287 29.1895 234.1318 28.9238 Q233.7256 28.5801 232.9287 28.5801 Q232.1943 28.5801 231.835 28.8457 Q231.4756 29.0957 231.3037 29.752 L230.2725 29.6113 Q230.4131 28.9551 230.7412 28.5488 Q231.0693 28.1426 231.6787 27.9238 Q232.2881 27.7051 233.085 27.7051 Q233.8818 27.7051 234.3818 27.8926 Q234.8818 28.0801 235.1162 28.3613 Q235.3506 28.6426 235.4443 29.0801 Q235.4912 29.3457 235.4912 30.0488 L235.4912 31.4551 Q235.4912 32.9238 235.5537 33.3145 Q235.6318 33.7051 235.835 34.0645 L234.7256 34.0645 Q234.5693 33.7363 234.5225 33.2988 ZM234.4287 30.9395 Q233.8506 31.1738 232.71 31.3457 Q232.0537 31.4395 231.7881 31.5645 Q231.5225 31.6738 231.3662 31.8926 Q231.2256 32.1113 231.2256 32.3926 Q231.2256 32.8145 231.5381 33.0957 Q231.8662 33.377 232.4756 33.377 Q233.085 33.377 233.5537 33.1113 Q234.0381 32.8457 234.2568 32.377 Q234.4287 32.0176 234.4287 31.3301 L234.4287 30.9395 ZM237.1338 36.4551 L237.1338 27.8457 L238.0869 27.8457 L238.0869 28.6426 Q238.4307 28.1738 238.8525 27.9395 Q239.29 27.7051 239.8994 27.7051 Q240.6963 27.7051 241.3057 28.1113 Q241.915 28.5176 242.2119 29.2676 Q242.5244 30.0176 242.5244 30.9082 Q242.5244 31.8613 242.1807 32.627 Q241.8525 33.3926 241.1963 33.7988 Q240.54 34.2051 239.8213 34.2051 Q239.29 34.2051 238.8682 33.9863 Q238.4463 33.752 238.1807 33.4238 L238.1807 36.4551 L237.1338 36.4551 ZM238.0869 30.9863 Q238.0869 32.1895 238.5713 32.7676 Q239.0557 33.3301 239.7432 33.3301 Q240.4463 33.3301 240.9463 32.7363 Q241.4463 32.1426 241.4463 30.8926 Q241.4463 29.7051 240.9619 29.127 Q240.4775 28.5332 239.79 28.5332 Q239.1182 28.5332 238.6025 29.1582 Q238.0869 29.7832 238.0869 30.9863 ZM243.8076 36.4551 L243.8076 27.8457 L244.7607 27.8457 L244.7607 28.6426 Q245.1045 28.1738 245.5264 27.9395 Q245.9639 27.7051 246.5732 27.7051 Q247.3701 27.7051 247.9795 28.1113 Q248.5889 28.5176 248.8857 29.2676 Q249.1982 30.0176 249.1982 30.9082 Q249.1982 31.8613 248.8545 32.627 Q248.5264 33.3926 247.8701 33.7988 Q247.2139 34.2051 246.4951 34.2051 Q245.9639 34.2051 245.542 33.9863 Q245.1201 33.752 244.8545 33.4238 L244.8545 36.4551 L243.8076 36.4551 ZM244.7607 30.9863 Q244.7607 32.1895 245.2451 32.7676 Q245.7295 33.3301 246.417 33.3301 Q247.1201 33.3301 247.6201 32.7363 Q248.1201 32.1426 248.1201 30.8926 Q248.1201 29.7051 247.6357 29.127 Q247.1514 28.5332 246.4639 28.5332 Q245.792 28.5332 245.2764 29.1582 Q244.7607 29.7832 244.7607 30.9863 ZM254.7314 32.0645 L255.8252 32.1895 Q255.5752 33.1426 254.8721 33.6738 Q254.1689 34.2051 253.0908 34.2051 Q251.7314 34.2051 250.9189 33.3613 Q250.1221 32.5176 250.1221 31.002 Q250.1221 29.4395 250.9346 28.5801 Q251.7471 27.7051 253.0283 27.7051 Q254.2783 27.7051 255.0596 28.5488 Q255.8564 29.3926 255.8564 30.9395 Q255.8564 31.0332 255.8564 31.2207 L251.2158 31.2207 Q251.2783 32.252 251.7939 32.7988 Q252.3096 33.3301 253.0908 33.3301 Q253.6689 33.3301 254.0752 33.0332 Q254.4971 32.7207 254.7314 32.0645 ZM251.2783 30.3613 L254.7471 30.3613 Q254.6846 29.5645 254.3564 29.1738 Q253.8408 28.5645 253.0439 28.5645 Q252.3096 28.5645 251.8096 29.0488 Q251.3252 29.5332 251.2783 30.3613 ZM257.1553 34.0645 L257.1553 27.8457 L258.0928 27.8457 L258.0928 28.7207 Q258.7803 27.7051 260.0771 27.7051 Q260.6396 27.7051 261.1084 27.9082 Q261.5928 28.1113 261.8271 28.4395 Q262.0615 28.7676 262.1553 29.2051 Q262.2021 29.502 262.2021 30.2363 L262.2021 34.0645 L261.1553 34.0645 L261.1553 30.2832 Q261.1553 29.627 261.0303 29.3145 Q260.9053 29.002 260.5928 28.8145 Q260.2803 28.6113 259.8584 28.6113 Q259.1865 28.6113 258.6865 29.0488 Q258.2021 29.4707 258.2021 30.6582 L258.2021 34.0645 L257.1553 34.0645 Z" clip-path="url(#clipPath5)" stroke="none"/>
          </g>
        </g>
      </a>
    </g>
    <g id="y.node.3">
      <g fill="url(#linearGradient4)" text-rendering="geometricPrecision" shape-rendering="geometricPrecision" transform="matrix(1,0,0,1,-5,15)" stroke="url(#linearGradient4)">
        <path d="M153 93 L228 122 L153 151 L78 122 Z" stroke="none"/>
      </g>
      <g text-rendering="geometricPrecision" stroke-miterlimit="1.45" shape-rendering="geometricPrecision" transform="matrix(1,0,0,1,-5,15)" stroke-linecap="butt">
        <path fill="none" d="M153 93 L228 122 L153 151 L78 122 Z"/>
      </g>
      <g>
        <g font-size="10px" stroke-linecap="butt" transform="matrix(1,0,0,1,-5,15)" text-rendering="geometricPrecision" font-family="sans-serif" shape-rendering="geometricPrecision" stroke-miterlimit="1.45">
          <text x="137.4409" xml:space="preserve" y="125.9282" stroke="none">implies</text>
        </g>
      </g>
    </g>
    <g id="y.edge.0">
      <g text-rendering="geometricPrecision" stroke-miterlimit="1.45" shape-rendering="geometricPrecision" transform="matrix(1,0,0,1,-5,15)" stroke-linecap="butt">
        <path fill="none" d="M227 46 L227 56.5 L190.5 77.5 L190.5 99.5019"/>
      </g>
      <g text-rendering="geometricPrecision" stroke-miterlimit="1.45" shape-rendering="geometricPrecision" transform="matrix(1,0,0,1,-5,15)" stroke-linecap="butt">
        <path d="M190.5 107.5019 L195.5 95.5019 L190.5 98.5019 L185.5 95.5019 Z" stroke="none"/>
      </g>
    </g>
    <g id="y.edge.1">
      <g text-rendering="geometricPrecision" stroke-miterlimit="1.45" shape-rendering="geometricPrecision" transform="matrix(1,0,0,1,-5,15)" stroke-linecap="butt">
        <path fill="none" d="M79 46 L79 56.5 L115.5 77.5 L115.5 99.4688"/>
        <path d="M115.5 107.4688 L120.5 95.4688 L115.5 98.4688 L110.5 95.4688 Z" stroke="none"/>
      </g>
    </g>
    <g id="y.edge.2">
      <g text-rendering="geometricPrecision" stroke-miterlimit="1.45" shape-rendering="geometricPrecision" transform="matrix(1,0,0,1,-5,15)" stroke-linecap="butt">
        <path fill="none" d="M153 151 L153 162.9609"/>
        <path d="M153 170.9609 L158 158.9609 L153 161.9609 L148 158.9609 Z" stroke="none"/>
      </g>
    </g>
    <g visibility="hidden" id="tooltip.y.node.0" pointer-events="none">
      <g fill="rgb(255,255,225)" text-rendering="geometricPrecision" shape-rendering="geometricPrecision" font-family="'Segoe UI'" stroke="rgb(255,255,225)">
        <rect x="0" width="816" height="18" y="0" clip-path="url(#clipPath6)" stroke="none"/>
        <text fill="black" x="4" xml:space="preserve" y="14" clip-path="url(#clipPath6)" stroke="none">SARS-CoV-2 is introduced through a laboratory incident, reflecting an accidental infection of staff from laboratory activities involving the relevant viruses.</text>
      </g>
      <g font-family="'Segoe UI'" text-rendering="geometricPrecision" shape-rendering="geometricPrecision">
        <path d="M0 0 L816 0 L816 18 L0 18 L0 0 ZM1 1 L815 1 L815 17 L1 17 L1 1 Z" fill-rule="evenodd" clip-path="url(#clipPath6)" stroke="none"/>
      </g>
    </g>
    <g visibility="hidden" id="tooltip.y.node.1" pointer-events="none">
      <g fill="rgb(255,255,225)" text-rendering="geometricPrecision" shape-rendering="geometricPrecision" font-family="'Segoe UI'" stroke="rgb(255,255,225)">
        <rect x="0" width="631" height="18" y="0" clip-path="url(#clipPath6)" stroke="none"/>
        <text fill="black" x="4" xml:space="preserve" y="14" clip-path="url(#clipPath6)" stroke="none">Although rare, laboratory accidents do happen, and different laboratories around the world are working with bat CoVs.</text>
      </g>
      <g font-family="'Segoe UI'" text-rendering="geometricPrecision" shape-rendering="geometricPrecision">
        <path d="M0 0 L631 0 L631 18 L0 18 L0 0 ZM1 1 L630 1 L630 17 L1 17 L1 1 Z" fill-rule="evenodd" clip-path="url(#clipPath6)" stroke="none"/>
      </g>
    </g>
    <g visibility="hidden" id="tooltip.y.node.2" pointer-events="none">
      <g fill="rgb(255,255,225)" text-rendering="geometricPrecision" shape-rendering="geometricPrecision" font-family="'Segoe UI'" stroke="rgb(255,255,225)">
        <rect x="0" width="1241" height="18" y="0" clip-path="url(#clipPath6)" stroke="none"/>
        <text fill="black" x="4" xml:space="preserve" y="14" clip-path="url(#clipPath6)" stroke="none">When working in particular with virus cultures, but also with animal inoculations or clinical samples, humans could become infected in laboratories with limited biosafety, poor laboratory management practice, or following negligence.</text>
      </g>
      <g font-family="'Segoe UI'" text-rendering="geometricPrecision" shape-rendering="geometricPrecision">
        <path d="M0 0 L1241 0 L1241 18 L0 18 L0 0 ZM1 1 L1240 1 L1240 17 L1 17 L1 1 Z" fill-rule="evenodd" clip-path="url(#clipPath6)" stroke="none"/>
      </g>
    </g>
  </g>
</svg>
